# Export of asd
# from Aaro4130 OBJ Exporter v2.0
mtllib map.mtl
g Cube_(5)
v -4.140607 5.439199 -4.59
v 14.04061 5.439199 -4.59
v -4.140607 -1.114053 -4.59
v 14.04061 -1.114053 -4.59
v -4.140607 5.439199 -5.59
v 14.04061 5.439199 -5.59
v -4.140607 5.439199 -4.59
v 14.04061 5.439199 -4.59
v -4.140607 -1.114053 -5.59
v 14.04061 -1.114053 -5.59
v -4.140607 5.439199 -5.59
v 14.04061 5.439199 -5.59
v -4.140607 -1.114053 -4.59
v 14.04061 -1.114053 -4.59
v -4.140607 -1.114053 -5.59
v 14.04061 -1.114053 -5.59
v 14.04061 5.439199 -4.59
v 14.04061 5.439199 -5.59
v 14.04061 -1.114053 -4.59
v 14.04061 -1.114053 -5.59
v -4.140607 5.439199 -5.59
v -4.140607 5.439199 -4.59
v -4.140607 -1.114053 -5.59
v -4.140607 -1.114053 -4.59
vn 0 0 0.1491622
vn 0 0 0.1491622
vn 0 0 0.1491622
vn 0 0 0.1491622
vn 0 0.9774975 0
vn 0 0.9774975 0
vn 0 0.9774975 0
vn 0 0.9774975 0
vn 0 0 -0.1491622
vn 0 0 -0.1491622
vn 0 0 -0.1491622
vn 0 0 -0.1491622
vn 0 -0.9774975 0
vn 0 -0.9774975 0
vn 0 -0.9774975 0
vn 0 -0.9774975 0
vn 0.1491622 0 0
vn 0.1491622 0 0
vn 0.1491622 0 0
vn 0.1491622 0 0
vn -0.1491622 0 0
vn -0.1491622 0 0
vn -0.1491622 0 0
vn -0.1491622 0 0
vt 0 1
vt 1 1
vt 0 0
vt 1 0
vt 0 1
vt 1 1
vt 0 0
vt 1 0
vt 0 1
vt 1 1
vt 0 0
vt 1 0
vt 0 1
vt 1 1
vt 0 0
vt 1 0
vt 0 1
vt 1 1
vt 0 0
vt 1 0
vt 0 1
vt 1 1
vt 0 0
vt 1 0
usemtl texture
f 3/3/3 2/2/2 1/1/1
f 3/3/3 4/4/4 2/2/2
f 7/7/7 6/6/6 5/5/5
f 7/7/7 8/8/8 6/6/6
f 11/11/11 10/10/10 9/9/9
f 11/11/11 12/12/12 10/10/10
f 15/15/15 14/14/14 13/13/13
f 15/15/15 16/16/16 14/14/14
f 19/19/19 18/18/18 17/17/17
f 19/19/19 20/20/20 18/18/18
f 23/23/23 22/22/22 21/21/21
f 23/23/23 24/24/24 22/22/22
g Cube
v -9.17 2.906312 15.2442
v -8.17 2.906312 15.2442
v -9.17 -1.906312 15.2442
v -8.17 -1.906312 15.2442
v -9.17 2.906312 -16.5642
v -8.17 2.906312 -16.5642
v -9.17 2.906312 15.2442
v -8.17 2.906312 15.2442
v -9.17 -1.906312 -16.5642
v -8.17 -1.906312 -16.5642
v -9.17 2.906312 -16.5642
v -8.17 2.906312 -16.5642
v -9.17 -1.906312 15.2442
v -8.17 -1.906312 15.2442
v -9.17 -1.906312 -16.5642
v -8.17 -1.906312 -16.5642
v -8.17 2.906312 15.2442
v -8.17 2.906312 -16.5642
v -8.17 -1.906312 15.2442
v -8.17 -1.906312 -16.5642
v -9.17 2.906312 -16.5642
v -9.17 2.906312 15.2442
v -9.17 -1.906312 -16.5642
v -9.17 -1.906312 15.2442
vn 0 0 0.5773503
vn 0 0 0.5773503
vn 0 0 0.5773503
vn 0 0 0.5773503
vn 0 0.5773503 0
vn 0 0.5773503 0
vn 0 0.5773503 0
vn 0 0.5773503 0
vn 0 0 -0.5773503
vn 0 0 -0.5773503
vn 0 0 -0.5773503
vn 0 0 -0.5773503
vn 0 -0.5773503 0
vn 0 -0.5773503 0
vn 0 -0.5773503 0
vn 0 -0.5773503 0
vn 0.5773503 0 0
vn 0.5773503 0 0
vn 0.5773503 0 0
vn 0.5773503 0 0
vn -0.5773503 0 0
vn -0.5773503 0 0
vn -0.5773503 0 0
vn -0.5773503 0 0
vt 0 1
vt 1 1
vt 0 0
vt 1 0
vt 0 1
vt 1 1
vt 0 0
vt 1 0
vt 0 1
vt 1 1
vt 0 0
vt 1 0
vt 0 1
vt 1 1
vt 0 0
vt 1 0
vt 0 1
vt 1 1
vt 0 0
vt 1 0
vt 0 1
vt 1 1
vt 0 0
vt 1 0
usemtl texture
f 27/27/27 26/26/26 25/25/25
f 27/27/27 28/28/28 26/26/26
f 31/31/31 30/30/30 29/29/29
f 31/31/31 32/32/32 30/30/30
f 35/35/35 34/34/34 33/33/33
f 35/35/35 36/36/36 34/34/34
f 39/39/39 38/38/38 37/37/37
f 39/39/39 40/40/40 38/38/38
f 43/43/43 42/42/42 41/41/41
f 43/43/43 44/44/44 42/42/42
f 47/47/47 46/46/46 45/45/45
f 47/47/47 48/48/48 46/46/46
g Cube_(2)
v -14.1342 2.906312 -16.08
v -14.1342 2.906312 -15.08
v -14.1342 -1.906312 -16.08
v -14.1342 -1.906312 -15.08
v 17.6742 2.906312 -16.08
v 17.6742 2.906312 -15.08
v -14.1342 2.906312 -16.08
v -14.1342 2.906312 -15.08
v 17.6742 -1.906312 -16.08
v 17.6742 -1.906312 -15.08
v 17.6742 2.906312 -16.08
v 17.6742 2.906312 -15.08
v -14.1342 -1.906312 -16.08
v -14.1342 -1.906312 -15.08
v 17.6742 -1.906312 -16.08
v 17.6742 -1.906312 -15.08
v -14.1342 2.906312 -15.08
v 17.6742 2.906312 -15.08
v -14.1342 -1.906312 -15.08
v 17.6742 -1.906312 -15.08
v 17.6742 2.906312 -16.08
v -14.1342 2.906312 -16.08
v 17.6742 -1.906312 -16.08
v -14.1342 -1.906312 -16.08
vn -0.5773503 0 0
vn -0.5773503 0 0
vn -0.5773503 0 0
vn -0.5773503 0 0
vn 0 0.5773503 0
vn 0 0.5773503 0
vn 0 0.5773503 0
vn 0 0.5773503 0
vn 0.5773503 0 0
vn 0.5773503 0 0
vn 0.5773503 0 0
vn 0.5773503 0 0
vn 0 -0.5773503 0
vn 0 -0.5773503 0
vn 0 -0.5773503 0
vn 0 -0.5773503 0
vn 0 0 0.5773503
vn 0 0 0.5773503
vn 0 0 0.5773503
vn 0 0 0.5773503
vn 0 0 -0.5773503
vn 0 0 -0.5773503
vn 0 0 -0.5773503
vn 0 0 -0.5773503
vt 0 1
vt 1 1
vt 0 0
vt 1 0
vt 0 1
vt 1 1
vt 0 0
vt 1 0
vt 0 1
vt 1 1
vt 0 0
vt 1 0
vt 0 1
vt 1 1
vt 0 0
vt 1 0
vt 0 1
vt 1 1
vt 0 0
vt 1 0
vt 0 1
vt 1 1
vt 0 0
vt 1 0
usemtl texture
f 51/51/51 50/50/50 49/49/49
f 51/51/51 52/52/52 50/50/50
f 55/55/55 54/54/54 53/53/53
f 55/55/55 56/56/56 54/54/54
f 59/59/59 58/58/58 57/57/57
f 59/59/59 60/60/60 58/58/58
f 63/63/63 62/62/62 61/61/61
f 63/63/63 64/64/64 62/62/62
f 67/67/67 66/66/66 65/65/65
f 67/67/67 68/68/68 66/66/66
f 71/71/71 70/70/70 69/69/69
f 71/71/71 72/72/72 70/70/70
g Cube_(1)
v 8.85 2.906312 15.2442
v 9.85 2.906312 15.2442
v 8.85 -1.906312 15.2442
v 9.85 -1.906312 15.2442
v 8.85 2.906312 -16.5642
v 9.85 2.906312 -16.5642
v 8.85 2.906312 15.2442
v 9.85 2.906312 15.2442
v 8.85 -1.906312 -16.5642
v 9.85 -1.906312 -16.5642
v 8.85 2.906312 -16.5642
v 9.85 2.906312 -16.5642
v 8.85 -1.906312 15.2442
v 9.85 -1.906312 15.2442
v 8.85 -1.906312 -16.5642
v 9.85 -1.906312 -16.5642
v 9.85 2.906312 15.2442
v 9.85 2.906312 -16.5642
v 9.85 -1.906312 15.2442
v 9.85 -1.906312 -16.5642
v 8.85 2.906312 -16.5642
v 8.85 2.906312 15.2442
v 8.85 -1.906312 -16.5642
v 8.85 -1.906312 15.2442
vn 0 0 0.5773503
vn 0 0 0.5773503
vn 0 0 0.5773503
vn 0 0 0.5773503
vn 0 0.5773503 0
vn 0 0.5773503 0
vn 0 0.5773503 0
vn 0 0.5773503 0
vn 0 0 -0.5773503
vn 0 0 -0.5773503
vn 0 0 -0.5773503
vn 0 0 -0.5773503
vn 0 -0.5773503 0
vn 0 -0.5773503 0
vn 0 -0.5773503 0
vn 0 -0.5773503 0
vn 0.5773503 0 0
vn 0.5773503 0 0
vn 0.5773503 0 0
vn 0.5773503 0 0
vn -0.5773503 0 0
vn -0.5773503 0 0
vn -0.5773503 0 0
vn -0.5773503 0 0
vt 0 1
vt 1 1
vt 0 0
vt 1 0
vt 0 1
vt 1 1
vt 0 0
vt 1 0
vt 0 1
vt 1 1
vt 0 0
vt 1 0
vt 0 1
vt 1 1
vt 0 0
vt 1 0
vt 0 1
vt 1 1
vt 0 0
vt 1 0
vt 0 1
vt 1 1
vt 0 0
vt 1 0
usemtl texture
f 75/75/75 74/74/74 73/73/73
f 75/75/75 76/76/76 74/74/74
f 79/79/79 78/78/78 77/77/77
f 79/79/79 80/80/80 78/78/78
f 83/83/83 82/82/82 81/81/81
f 83/83/83 84/84/84 82/82/82
f 87/87/87 86/86/86 85/85/85
f 87/87/87 88/88/88 86/86/86
f 91/91/91 90/90/90 89/89/89
f 91/91/91 92/92/92 90/90/90
f 95/95/95 94/94/94 93/93/93
f 95/95/95 96/96/96 94/94/94
g Cube_(6)
v -13.58061 5.439199 1.39
v 4.600607 5.439199 1.39
v -13.58061 -1.114053 1.39
v 4.600607 -1.114053 1.39
v -13.58061 5.439199 0.39
v 4.600607 5.439199 0.39
v -13.58061 5.439199 1.39
v 4.600607 5.439199 1.39
v -13.58061 -1.114053 0.39
v 4.600607 -1.114053 0.39
v -13.58061 5.439199 0.39
v 4.600607 5.439199 0.39
v -13.58061 -1.114053 1.39
v 4.600607 -1.114053 1.39
v -13.58061 -1.114053 0.39
v 4.600607 -1.114053 0.39
v 4.600607 5.439199 1.39
v 4.600607 5.439199 0.39
v 4.600607 -1.114053 1.39
v 4.600607 -1.114053 0.39
v -13.58061 5.439199 0.39
v -13.58061 5.439199 1.39
v -13.58061 -1.114053 0.39
v -13.58061 -1.114053 1.39
vn 0 0 0.1491622
vn 0 0 0.1491622
vn 0 0 0.1491622
vn 0 0 0.1491622
vn 0 0.9774975 0
vn 0 0.9774975 0
vn 0 0.9774975 0
vn 0 0.9774975 0
vn 0 0 -0.1491622
vn 0 0 -0.1491622
vn 0 0 -0.1491622
vn 0 0 -0.1491622
vn 0 -0.9774975 0
vn 0 -0.9774975 0
vn 0 -0.9774975 0
vn 0 -0.9774975 0
vn 0.1491622 0 0
vn 0.1491622 0 0
vn 0.1491622 0 0
vn 0.1491622 0 0
vn -0.1491622 0 0
vn -0.1491622 0 0
vn -0.1491622 0 0
vn -0.1491622 0 0
vt 0 1
vt 1 1
vt 0 0
vt 1 0
vt 0 1
vt 1 1
vt 0 0
vt 1 0
vt 0 1
vt 1 1
vt 0 0
vt 1 0
vt 0 1
vt 1 1
vt 0 0
vt 1 0
vt 0 1
vt 1 1
vt 0 0
vt 1 0
vt 0 1
vt 1 1
vt 0 0
vt 1 0
usemtl texture
f 99/99/99 98/98/98 97/97/97
f 99/99/99 100/100/100 98/98/98
f 103/103/103 102/102/102 101/101/101
f 103/103/103 104/104/104 102/102/102
f 107/107/107 106/106/106 105/105/105
f 107/107/107 108/108/108 106/106/106
f 111/111/111 110/110/110 109/109/109
f 111/111/111 112/112/112 110/110/110
f 115/115/115 114/114/114 113/113/113
f 115/115/115 116/116/116 114/114/114
f 119/119/119 118/118/118 117/117/117
f 119/119/119 120/120/120 118/118/118
g Cube_(3)
v -14.1342 2.906312 12.97
v -14.1342 2.906312 13.97
v -14.1342 -1.906312 12.97
v -14.1342 -1.906312 13.97
v 17.6742 2.906312 12.97
v 17.6742 2.906312 13.97
v -14.1342 2.906312 12.97
v -14.1342 2.906312 13.97
v 17.6742 -1.906312 12.97
v 17.6742 -1.906312 13.97
v 17.6742 2.906312 12.97
v 17.6742 2.906312 13.97
v -14.1342 -1.906312 12.97
v -14.1342 -1.906312 13.97
v 17.6742 -1.906312 12.97
v 17.6742 -1.906312 13.97
v -14.1342 2.906312 13.97
v 17.6742 2.906312 13.97
v -14.1342 -1.906312 13.97
v 17.6742 -1.906312 13.97
v 17.6742 2.906312 12.97
v -14.1342 2.906312 12.97
v 17.6742 -1.906312 12.97
v -14.1342 -1.906312 12.97
vn -0.5773503 0 0
vn -0.5773503 0 0
vn -0.5773503 0 0
vn -0.5773503 0 0
vn 0 0.5773503 0
vn 0 0.5773503 0
vn 0 0.5773503 0
vn 0 0.5773503 0
vn 0.5773503 0 0
vn 0.5773503 0 0
vn 0.5773503 0 0
vn 0.5773503 0 0
vn 0 -0.5773503 0
vn 0 -0.5773503 0
vn 0 -0.5773503 0
vn 0 -0.5773503 0
vn 0 0 0.5773503
vn 0 0 0.5773503
vn 0 0 0.5773503
vn 0 0 0.5773503
vn 0 0 -0.5773503
vn 0 0 -0.5773503
vn 0 0 -0.5773503
vn 0 0 -0.5773503
vt 0 1
vt 1 1
vt 0 0
vt 1 0
vt 0 1
vt 1 1
vt 0 0
vt 1 0
vt 0 1
vt 1 1
vt 0 0
vt 1 0
vt 0 1
vt 1 1
vt 0 0
vt 1 0
vt 0 1
vt 1 1
vt 0 0
vt 1 0
vt 0 1
vt 1 1
vt 0 0
vt 1 0
usemtl texture
f 123/123/123 122/122/122 121/121/121
f 123/123/123 124/124/124 122/122/122
f 127/127/127 126/126/126 125/125/125
f 127/127/127 128/128/128 126/126/126
f 131/131/131 130/130/130 129/129/129
f 131/131/131 132/132/132 130/130/130
f 135/135/135 134/134/134 133/133/133
f 135/135/135 136/136/136 134/134/134
f 139/139/139 138/138/138 137/137/137
f 139/139/139 140/140/140 138/138/138
f 143/143/143 142/142/142 141/141/141
f 143/143/143 144/144/144 142/142/142
g Cube_(4)
v -16.84061 5.439199 -10.39
v 1.340607 5.439199 -10.39
v -16.84061 -1.114053 -10.39
v 1.340607 -1.114053 -10.39
v -16.84061 5.439199 -11.39
v 1.340607 5.439199 -11.39
v -16.84061 5.439199 -10.39
v 1.340607 5.439199 -10.39
v -16.84061 -1.114053 -11.39
v 1.340607 -1.114053 -11.39
v -16.84061 5.439199 -11.39
v 1.340607 5.439199 -11.39
v -16.84061 -1.114053 -10.39
v 1.340607 -1.114053 -10.39
v -16.84061 -1.114053 -11.39
v 1.340607 -1.114053 -11.39
v 1.340607 5.439199 -10.39
v 1.340607 5.439199 -11.39
v 1.340607 -1.114053 -10.39
v 1.340607 -1.114053 -11.39
v -16.84061 5.439199 -11.39
v -16.84061 5.439199 -10.39
v -16.84061 -1.114053 -11.39
v -16.84061 -1.114053 -10.39
vn 0 0 0.1491622
vn 0 0 0.1491622
vn 0 0 0.1491622
vn 0 0 0.1491622
vn 0 0.9774975 0
vn 0 0.9774975 0
vn 0 0.9774975 0
vn 0 0.9774975 0
vn 0 0 -0.1491622
vn 0 0 -0.1491622
vn 0 0 -0.1491622
vn 0 0 -0.1491622
vn 0 -0.9774975 0
vn 0 -0.9774975 0
vn 0 -0.9774975 0
vn 0 -0.9774975 0
vn 0.1491622 0 0
vn 0.1491622 0 0
vn 0.1491622 0 0
vn 0.1491622 0 0
vn -0.1491622 0 0
vn -0.1491622 0 0
vn -0.1491622 0 0
vn -0.1491622 0 0
vt 0 1
vt 1 1
vt 0 0
vt 1 0
vt 0 1
vt 1 1
vt 0 0
vt 1 0
vt 0 1
vt 1 1
vt 0 0
vt 1 0
vt 0 1
vt 1 1
vt 0 0
vt 1 0
vt 0 1
vt 1 1
vt 0 0
vt 1 0
vt 0 1
vt 1 1
vt 0 0
vt 1 0
usemtl texture
f 147/147/147 146/146/146 145/145/145
f 147/147/147 148/148/148 146/146/146
f 151/151/151 150/150/150 149/149/149
f 151/151/151 152/152/152 150/150/150
f 155/155/155 154/154/154 153/153/153
f 155/155/155 156/156/156 154/154/154
f 159/159/159 158/158/158 157/157/157
f 159/159/159 160/160/160 158/158/158
f 163/163/163 162/162/162 161/161/161
f 163/163/163 164/164/164 162/162/162
f 167/167/167 166/166/166 165/165/165
f 167/167/167 168/168/168 166/166/166
g Quad (1)
v -9.192847 -1.907349E-06 22.46658
v -9.192847 1.907349E-06 -22.46658
v 9.192847 1.907349E-06 -22.46658
v 9.192847 -1.907349E-06 22.46658
vn 0 0.4690396 0
vn 0 0.4690396 0
vn 0 0.4690396 0
vn 0 0.4690396 0
vt 1 1
vt 1 0
vt 0 0
vt 0 1
usemtl texture
f 171/171/171 170/170/170 169/169/169
f 169/169/169 172/172/172 171/171/171
g Cube_(7)
v -2.790606 5.869199 6.08
v 15.39061 5.869199 6.08
v -2.790606 -0.6840529 6.08
v 15.39061 -0.6840529 6.08
v -2.790606 5.869199 5.08
v 15.39061 5.869199 5.08
v -2.790606 5.869199 6.08
v 15.39061 5.869199 6.08
v -2.790606 -0.6840529 5.08
v 15.39061 -0.6840529 5.08
v -2.790606 5.869199 5.08
v 15.39061 5.869199 5.08
v -2.790606 -0.6840529 6.08
v 15.39061 -0.6840529 6.08
v -2.790606 -0.6840529 5.08
v 15.39061 -0.6840529 5.08
v 15.39061 5.869199 6.08
v 15.39061 5.869199 5.08
v 15.39061 -0.6840529 6.08
v 15.39061 -0.6840529 5.08
v -2.790606 5.869199 5.08
v -2.790606 5.869199 6.08
v -2.790606 -0.6840529 5.08
v -2.790606 -0.6840529 6.08
vn 0 0 0.1491622
vn 0 0 0.1491622
vn 0 0 0.1491622
vn 0 0 0.1491622
vn 0 0.9774975 0
vn 0 0.9774975 0
vn 0 0.9774975 0
vn 0 0.9774975 0
vn 0 0 -0.1491622
vn 0 0 -0.1491622
vn 0 0 -0.1491622
vn 0 0 -0.1491622
vn 0 -0.9774975 0
vn 0 -0.9774975 0
vn 0 -0.9774975 0
vn 0 -0.9774975 0
vn 0.1491622 0 0
vn 0.1491622 0 0
vn 0.1491622 0 0
vn 0.1491622 0 0
vn -0.1491622 0 0
vn -0.1491622 0 0
vn -0.1491622 0 0
vn -0.1491622 0 0
vt 0 1
vt 1 1
vt 0 0
vt 1 0
vt 0 1
vt 1 1
vt 0 0
vt 1 0
vt 0 1
vt 1 1
vt 0 0
vt 1 0
vt 0 1
vt 1 1
vt 0 0
vt 1 0
vt 0 1
vt 1 1
vt 0 0
vt 1 0
vt 0 1
vt 1 1
vt 0 0
vt 1 0
usemtl texture
f 175/175/175 174/174/174 173/173/173
f 175/175/175 176/176/176 174/174/174
f 179/179/179 178/178/178 177/177/177
f 179/179/179 180/180/180 178/178/178
f 183/183/183 182/182/182 181/181/181
f 183/183/183 184/184/184 182/182/182
f 187/187/187 186/186/186 185/185/185
f 187/187/187 188/188/188 186/186/186
f 191/191/191 190/190/190 189/189/189
f 191/191/191 192/192/192 190/190/190
f 195/195/195 194/194/194 193/193/193
f 195/195/195 196/196/196 194/194/194
